<svg xmlns="http://www.w3.org/2000/svg" viewBox="0 0 1600 520" preserveAspectRatio="xMidYMid slice">
<defs>
  <linearGradient id="sky" x1="0" y1="0" x2="1" y2="1"><stop stop-color="#08090d"/><stop offset=".48" stop-color="#151019"/><stop offset="1" stop-color="#220b12"/></linearGradient>
  <radialGradient id="red" cx=".76" cy=".1" r=".65"><stop stop-color="#ff2942" stop-opacity=".45"/><stop offset="1" stop-color="#ff2942" stop-opacity="0"/></radialGradient>
  <linearGradient id="fog" x1="0" y1="0" x2="0" y2="1"><stop stop-color="#090a0f" stop-opacity="0"/><stop offset="1" stop-color="#07070a" stop-opacity=".92"/></linearGradient>
  <filter id="glow"><feGaussianBlur stdDeviation="14"/></filter>
</defs>
<rect width="1600" height="520" fill="url(#sky)"/>
<rect width="1600" height="520" fill="url(#red)"/>
<g fill="#0b0d12" opacity=".94">
  <path d="M0 420V255h74v165h26V212h66v208h25V300h75v120h26V180h54v240h24V248h83v172h24V156h60v264h25V235h80v185h27V194h52v226h27V280h92v140h24V214h68v206h26V170h76v250h23V242h59v178h25V198h62v222h24V274h82v146h24V228h62v192h25V185h60v235h24V265h72v155h25V220h52v200h22V290h91v130h41v100H0z"/>
</g>
<g fill="#161a22" opacity=".92">
  <path d="M0 460V340h88v120h21V292h58v168h20V360h82v100h23V274h70v186h23V326h82v134h21V245h65v215h25V304h79v156h21V288h72v172h24V354h88v106h23V268h67v192h25V312h80v148h21V256h74v204h20V332h90v128h24V286h64v174h24V346h91v114h23V298h65v162h22V338h88v122h22V286h72v174h26V346h84v114H0z"/>
</g>
<g fill="#ff2b45">
  <g filter="url(#glow)" opacity=".28"><rect x="220" y="310" width="9" height="75"/><rect x="482" y="286" width="10" height="95"/><rect x="760" y="300" width="9" height="92"/><rect x="1045" y="282" width="10" height="102"/><rect x="1320" y="305" width="9" height="84"/></g>
  <rect x="220" y="310" width="5" height="75"/><rect x="482" y="286" width="6" height="95"/><rect x="760" y="300" width="5" height="92"/><rect x="1045" y="282" width="6" height="102"/><rect x="1320" y="305" width="5" height="84"/>
</g>
<path d="M0 448c180-35 310-35 480-4 170 31 310 22 466-5 190-33 378-34 654 8v73H0z" fill="#07080c"/>
<rect width="1600" height="520" fill="url(#fog)"/>
</svg>